<svg width="424" height="429" viewBox="0 0 424 429" fill="none" xmlns="http://www.w3.org/2000/svg">
<mask id="mask0_107_23" style="mask-type:alpha" maskUnits="userSpaceOnUse" x="0" y="0" width="424" height="429">
<path d="M3.63493 126.208C6.1907 59.2949 59.9139 5.67491 126.831 3.24783L213.059 0.120361L297.787 3.19534C365.269 5.64443 419.227 60.1222 421.028 127.625L423.363 215.108L421.051 301.573C419.239 369.312 364.918 423.888 297.188 426.016L213.059 428.66L127.421 425.97C60.2572 423.861 6.1737 370.148 3.60351 303L0.239306 215.108L3.63493 126.208Z" fill="#00122B"/>
</mask>
<g mask="url(#mask0_107_23)">
<circle cx="167.313" cy="206.881" r="427.91" fill="#FF006E" stroke="black"/>
</g>
<rect x="294.688" y="344.491" width="298.789" height="67.8805" transform="rotate(-135.024 294.688 344.491)" fill="#DFBCBC"/>
<rect x="209.779" y="259.653" width="178.759" height="67.8805" transform="rotate(-135.024 209.779 259.653)" fill="white"/>
<rect x="83.358" y="296.527" width="298.789" height="67.8805" transform="rotate(-45 83.358 296.527)" fill="#DFBCBC"/>
<rect x="83.358" y="296.527" width="182.437" height="67.8805" transform="rotate(-45 83.358 296.527)" fill="white"/>
</svg>
